<svg width="22" height="22" viewBox="0 0 22 22" fill="none" xmlns="http://www.w3.org/2000/svg">
<path d="M19.0199 11L20.0319 9.251C20.1535 9.04057 20.1866 8.79046 20.1238 8.55565C20.0611 8.32083 19.9077 8.12055 19.6973 7.99884L17.9465 6.98684V4.97017C17.9465 4.72705 17.8499 4.4939 17.678 4.32199C17.5061 4.15008 17.2729 4.0535 17.0298 4.0535H15.014L14.003 2.30359C13.8808 2.09359 13.681 1.94013 13.4465 1.87642C13.3303 1.8449 13.2089 1.83677 13.0895 1.85251C12.97 1.86824 12.8549 1.90753 12.7508 1.96809L11 2.98009L9.24913 1.96717C9.03859 1.84562 8.78839 1.81268 8.55356 1.87559C8.31874 1.93851 8.11852 2.09214 7.99696 2.30267L6.98496 4.0535H4.96921C4.72609 4.0535 4.49294 4.15008 4.32103 4.32199C4.14912 4.4939 4.05254 4.72705 4.05254 4.97017V6.98592L2.30171 7.99792C2.19724 8.05801 2.10567 8.13815 2.03227 8.23374C1.95887 8.32933 1.90507 8.43848 1.87398 8.55492C1.84289 8.67136 1.83511 8.7928 1.8511 8.91226C1.86708 9.03171 1.90651 9.14683 1.96713 9.251L2.97913 11L1.96713 12.749C1.84612 12.9596 1.81328 13.2096 1.87579 13.4443C1.93829 13.679 2.09106 13.8795 2.30079 14.0021L4.05163 15.0141V17.0298C4.05163 17.273 4.1482 17.5061 4.32011 17.678C4.49202 17.8499 4.72518 17.9465 4.96829 17.9465H6.98496L7.99696 19.6973C8.07811 19.8361 8.19398 19.9513 8.33317 20.0316C8.47236 20.112 8.63007 20.1547 8.79079 20.1557C8.95029 20.1557 9.10888 20.1135 9.25004 20.0319L10.999 19.0199L12.7499 20.0319C12.9604 20.1533 13.2104 20.1862 13.4451 20.1235C13.6799 20.0608 13.8802 19.9075 14.002 19.6973L15.0131 17.9465H17.0289C17.272 17.9465 17.5051 17.8499 17.6771 17.678C17.849 17.5061 17.9455 17.273 17.9455 17.0298V15.0141L19.6964 14.0021C19.8007 13.9418 19.8921 13.8616 19.9653 13.766C20.0386 13.6704 20.0923 13.5613 20.1234 13.4449C20.1544 13.3285 20.1623 13.2072 20.1464 13.0877C20.1306 12.9683 20.0913 12.8532 20.031 12.749L19.0199 11ZM8.70738 6.4075C9.07217 6.40762 9.42197 6.55265 9.67984 6.81069C9.9377 7.06872 10.0825 7.41862 10.0824 7.78342C10.0823 8.14821 9.93722 8.49802 9.67919 8.75588C9.42115 9.01374 9.07125 9.15854 8.70646 9.15842C8.34166 9.1583 7.99186 9.01327 7.734 8.75523C7.47613 8.4972 7.33134 8.1473 7.33146 7.7825C7.33158 7.41771 7.47661 7.0679 7.73464 6.81004C7.99268 6.55218 8.34258 6.40738 8.70738 6.4075ZM8.98238 15.2075L7.51571 14.1084L13.0157 6.77509L14.4824 7.87417L8.98238 15.2075ZM13.2907 15.5742C13.1101 15.5741 12.9312 15.5385 12.7644 15.4693C12.5975 15.4001 12.4459 15.2987 12.3182 15.171C12.1906 15.0432 12.0893 14.8916 12.0202 14.7247C11.9512 14.5578 11.9156 14.3789 11.9157 14.1983C11.9158 14.0176 11.9514 13.8388 12.0206 13.6719C12.0898 13.5051 12.1911 13.3535 12.3189 13.2258C12.4467 13.0981 12.5983 12.9968 12.7652 12.9278C12.9321 12.8587 13.111 12.8232 13.2916 12.8233C13.6564 12.8234 14.0062 12.9684 14.2641 13.2264C14.5219 13.4845 14.6667 13.8344 14.6666 14.1992C14.6665 14.564 14.5215 14.9138 14.2634 15.1716C14.0054 15.4295 13.6555 15.5743 13.2907 15.5742Z" fill="white"/>
</svg>
