<svg width="173" height="28" viewBox="0 0 173 28" fill="none" xmlns="http://www.w3.org/2000/svg">
<path d="M42.0875 10.8568V22.4007H39.6526V10.8568H35.311V8.76551H46.4291V10.8568H42.0875ZM58.9095 18.1624H50.3434C50.4021 18.906 50.7638 19.5101 51.4288 19.9749C52.0937 20.4395 52.8662 20.672 53.7464 20.672C55.135 20.672 56.1715 20.263 56.856 19.4451L58.1761 20.8114C57.0026 21.9825 55.4674 22.5681 53.5703 22.5681C52.0058 22.5681 50.6954 22.0755 49.6394 21.0902C48.5832 20.105 48.0551 18.8037 48.0551 17.1865C48.0551 15.6064 48.593 14.3237 49.6687 13.3385C50.7443 12.3532 52.0449 11.8607 53.5703 11.8607C55.0957 11.8607 56.367 12.2974 57.384 13.1712C58.401 14.0449 58.9095 15.2068 58.9095 16.6567V18.1624ZM56.6213 16.4337C56.6213 15.5971 56.3377 14.9371 55.7705 14.4539C55.223 13.9705 54.5091 13.7288 53.629 13.7288C52.7489 13.7288 51.9764 13.9798 51.3115 14.4818C50.6661 14.9836 50.3434 15.6342 50.3434 16.4337H56.6213ZM61.1067 13.9241V12.0558H69.6434V14.0356L63.5122 20.5047H69.9662V22.4007H60.696V20.2816L66.6512 13.9241H61.1067ZM77.5908 20.6162C78.5881 20.6162 79.4095 20.3002 80.0549 19.6681C80.7199 19.0361 81.0524 18.2182 81.0524 17.2144C81.0524 16.2105 80.7199 15.3926 80.0549 14.7606C79.4095 14.1285 78.5881 13.8126 77.5908 13.8126C76.5933 13.8126 75.7719 14.1285 75.1265 14.7606C74.4811 15.3926 74.1584 16.2105 74.1584 17.2144C74.1584 18.2182 74.4811 19.0268 75.1265 19.6402C75.7719 20.2909 76.5933 20.6162 77.5908 20.6162ZM77.5908 22.5681C75.9479 22.5681 74.5788 22.0569 73.4837 21.0344C72.3885 19.9935 71.841 18.7201 71.841 17.2144C71.841 15.7086 72.3885 14.4446 73.4837 13.4221C74.5788 12.3811 75.9479 11.8607 77.5908 11.8607C79.2335 11.8607 80.6025 12.3811 81.6978 13.4221C82.7929 14.4446 83.3406 15.7086 83.3406 17.2144C83.3406 18.6643 82.7929 19.9284 81.6978 21.0065C80.6025 22.0476 79.2335 22.5681 77.5908 22.5681ZM89.6958 22.5681C87.9356 22.5681 86.3515 22.0476 84.9433 21.0065L86.058 19.3057C87.3097 20.2165 88.5418 20.672 89.7544 20.672C90.2628 20.672 90.6638 20.5605 90.9571 20.3373C91.2701 20.0957 91.4265 19.7983 91.4265 19.4451C91.4265 18.9245 90.7029 18.4599 89.2557 18.0509C89.2166 18.0323 89.1677 18.0137 89.109 17.9951C89.0699 17.9765 89.0406 17.9673 89.021 17.9673C86.7523 17.391 85.6181 16.415 85.6181 15.0394C85.6181 14.0728 85.9994 13.3013 86.7621 12.725C87.5445 12.1488 88.5712 11.8607 89.8424 11.8607C91.0941 11.8607 92.287 12.2138 93.4214 12.9202L92.5707 14.5375C91.6905 13.9798 90.7225 13.7009 89.6664 13.7009C88.4343 13.7009 87.8182 14.0728 87.8182 14.8163C87.8182 15.1324 87.9356 15.3647 88.1702 15.5134C88.4245 15.6435 88.8352 15.7737 89.4023 15.9038C90.2628 16.1269 90.9864 16.3499 91.5732 16.5731C91.9644 16.7403 92.3066 16.9169 92.6 17.1029C93.3432 17.5861 93.7147 18.3204 93.7147 19.3057C93.7147 20.2723 93.3334 21.0623 92.5707 21.6758C91.8275 22.2706 90.8691 22.5681 89.6958 22.5681ZM112.888 18.6365L114.443 20.1422C112.956 21.7594 111.118 22.5681 108.927 22.5681C106.757 22.5681 104.948 21.9082 103.5 20.5884C102.073 19.2499 101.359 17.5675 101.359 15.5413C101.359 13.4965 102.092 11.8049 103.559 10.4665C105.026 9.10947 106.874 8.43096 109.103 8.43096C111.294 8.43096 113.142 9.21169 114.648 10.7732L113.122 12.3625C112.438 11.7305 111.793 11.2937 111.186 11.0519C110.58 10.8103 109.866 10.6895 109.045 10.6895C107.578 10.6895 106.346 11.1357 105.349 12.0279C104.371 12.9202 103.882 14.0542 103.882 15.4298C103.882 16.7868 104.371 17.9394 105.349 18.8874C106.326 19.8355 107.49 20.3094 108.839 20.3094C109.661 20.3094 110.365 20.1793 110.952 19.9191C111.558 19.6588 112.203 19.2313 112.888 18.6365ZM122.108 20.6162C123.106 20.6162 123.927 20.3002 124.572 19.6681C125.238 19.0361 125.57 18.2182 125.57 17.2144C125.57 16.2105 125.238 15.3926 124.572 14.7606C123.927 14.1285 123.106 13.8126 122.108 13.8126C121.111 13.8126 120.29 14.1285 119.644 14.7606C118.999 15.3926 118.676 16.2105 118.676 17.2144C118.676 18.2182 118.999 19.0268 119.644 19.6402C120.29 20.2909 121.111 20.6162 122.108 20.6162ZM122.108 22.5681C120.466 22.5681 119.097 22.0569 118.001 21.0344C116.906 19.9935 116.359 18.7201 116.359 17.2144C116.359 15.7086 116.906 14.4446 118.001 13.4221C119.097 12.3811 120.466 11.8607 122.108 11.8607C123.751 11.8607 125.121 12.3811 126.215 13.4221C127.311 14.4446 127.858 15.7086 127.858 17.2144C127.858 18.6643 127.311 19.9284 126.215 21.0065C125.121 22.0476 123.751 22.5681 122.108 22.5681ZM132.747 22.4007H130.459V7.92902H132.747V22.4007ZM138.388 22.4007H136.1V7.92902H138.388V22.4007ZM151.89 18.1624H143.325C143.383 18.906 143.745 19.5101 144.41 19.9749C145.076 20.4395 145.848 20.672 146.728 20.672C148.117 20.672 149.153 20.263 149.837 19.4451L151.158 20.8114C149.985 21.9825 148.449 22.5681 146.551 22.5681C144.987 22.5681 143.677 22.0755 142.621 21.0902C141.565 20.105 141.037 18.8037 141.037 17.1865C141.037 15.6064 141.574 14.3237 142.651 13.3385C143.726 12.3532 145.026 11.8607 146.551 11.8607C148.077 11.8607 149.348 12.2974 150.365 13.1712C151.382 14.0449 151.89 15.2068 151.89 16.6567V18.1624ZM149.602 16.4337C149.602 15.5971 149.319 14.9371 148.752 14.4539C148.204 13.9705 147.491 13.7288 146.611 13.7288C145.731 13.7288 144.958 13.9798 144.292 14.4818C143.647 14.9836 143.325 15.6342 143.325 16.4337H149.602ZM153.707 17.2144C153.707 15.6528 154.274 14.3701 155.409 13.3664C156.543 12.3625 157.941 11.8607 159.604 11.8607C161.246 11.8607 162.635 12.3997 163.769 13.4779L162.42 15.0672C161.481 14.2865 160.532 13.8962 159.573 13.8962C158.596 13.8962 157.755 14.2029 157.051 14.8163C156.366 15.4112 156.025 16.1826 156.025 17.1308C156.025 18.0973 156.366 18.9153 157.051 19.5845C157.755 20.2351 158.616 20.5605 159.633 20.5605C160.65 20.5605 161.618 20.1236 162.537 19.2499L163.887 20.6441C162.498 21.9268 160.963 22.5681 159.28 22.5681C157.716 22.5681 156.395 22.0755 155.32 21.0902C154.244 20.0864 153.707 18.7944 153.707 17.2144ZM169.067 13.7847V19.0547C169.067 19.5566 169.203 19.9563 169.477 20.2537C169.771 20.5326 170.162 20.672 170.65 20.672C171.101 20.672 171.57 20.4395 172.059 19.9749L172.998 21.5364C172.177 22.2242 171.287 22.5681 170.328 22.5681C169.331 22.5681 168.489 22.2427 167.805 21.5921C167.121 20.9229 166.779 20.0585 166.779 18.9989V13.7847H165.4V12.0279H166.779V8.76551H169.067V12.0279H171.942V13.7847H169.067Z" fill="#FAFBFD"/>
<mask id="mask0_153_200" style="mask-type:alpha" maskUnits="userSpaceOnUse" x="0" y="0" width="26" height="28">
<path fill-rule="evenodd" clip-rule="evenodd" d="M7.56908 5.51156C7.55587 5.36568 7.54909 5.21795 7.54909 5.0688C7.54909 2.26935 9.93648 0 12.8817 0C15.8268 0 18.2143 2.26935 18.2143 5.0688C18.2143 5.21795 18.2075 5.36568 18.1942 5.51156H19.3711H19.5905C21.1254 5.51156 22.4294 6.57875 22.6576 8.02145L25.2814 24.6138C25.5633 26.3965 24.1108 28 22.2143 28H19.3711H16.192H9.57142H8.60144H3.54912C1.65257 28 0.200123 26.3965 0.48202 24.6138L3.10582 8.02145C3.33396 6.57875 4.63799 5.51156 6.17292 5.51156H7.56908ZM16.5156 5.51156H16.192H9.57142H9.24771C9.2283 5.36656 9.2183 5.21872 9.2183 5.0688C9.2183 3.14569 10.8585 1.58671 12.8817 1.58671C14.9048 1.58671 16.545 3.14569 16.545 5.0688C16.545 5.21872 16.535 5.36656 16.5156 5.51156Z" fill="#FAFBFD"/>
</mask>
<g mask="url(#mask0_153_200)">
<path d="M38.6444 21.3537L9.5312 -6.49329L3.2186 -0.530742L32.3318 27.3163L38.6444 21.3537Z" fill="#CEE7FB"/>
<path d="M30.5039 29.0911L1.39076 1.24408L-4.92184 7.20662L24.1913 35.0537L30.5039 29.0911Z" fill="#6D8AEC"/>
<path d="M22.4105 36.8285L-6.70267 8.98151L-13.0153 14.9441L16.0979 42.7911L22.4105 36.8285Z" fill="#143399"/>
</g>
</svg>
