<svg width="26" height="28" viewBox="0 0 26 28" fill="none" xmlns="http://www.w3.org/2000/svg">
<mask id="mask0_157_546" style="mask-type:alpha" maskUnits="userSpaceOnUse" x="0" y="0" width="26" height="28">
<path fill-rule="evenodd" clip-rule="evenodd" d="M7.56908 5.51156C7.55587 5.36568 7.54909 5.21795 7.54909 5.0688C7.54909 2.26935 9.93648 0 12.8817 0C15.8268 0 18.2143 2.26935 18.2143 5.0688C18.2143 5.21795 18.2075 5.36568 18.1942 5.51156H19.3711H19.5905C21.1254 5.51156 22.4294 6.57875 22.6576 8.02145L25.2814 24.6138C25.5633 26.3965 24.1108 28 22.2143 28H19.3711H16.192H9.57142H8.60144H3.54912C1.65257 28 0.200123 26.3965 0.48202 24.6138L3.10582 8.02145C3.33396 6.57875 4.63799 5.51156 6.17292 5.51156H7.56908ZM16.5156 5.51156H16.192H9.57142H9.24771C9.2283 5.36656 9.2183 5.21872 9.2183 5.0688C9.2183 3.14569 10.8585 1.58671 12.8817 1.58671C14.9048 1.58671 16.545 3.14569 16.545 5.0688C16.545 5.21872 16.535 5.36656 16.5156 5.51156Z" fill="#FAFBFD"/>
</mask>
<g mask="url(#mask0_157_546)">
<path d="M38.6444 21.3537L9.5312 -6.49329L3.2186 -0.530742L32.3318 27.3163L38.6444 21.3537Z" fill="#CEE7FB"/>
<path d="M30.5039 29.0911L1.39076 1.24408L-4.92184 7.20662L24.1913 35.0537L30.5039 29.0911Z" fill="#6D8AEC"/>
<path d="M22.4105 36.8285L-6.70267 8.98151L-13.0153 14.9441L16.0979 42.7911L22.4105 36.8285Z" fill="#143399"/>
</g>
</svg>
