<svg width="16" height="18" viewBox="0 0 16 18" fill="none" xmlns="http://www.w3.org/2000/svg">
<path d="M14.5508 6.58981H14.144V4.62721C14.1437 4.61474 14.1425 4.60231 14.1404 4.59001C14.141 4.51116 14.1128 4.43481 14.0612 4.37521L10.796 0.645006L10.7936 0.642606C10.774 0.621482 10.7519 0.602933 10.7276 0.587406L10.706 0.574206C10.6853 0.562672 10.6633 0.553419 10.6406 0.546606L10.6226 0.540606C10.5977 0.53439 10.5721 0.531168 10.5464 0.531006H2.5202C2.1536 0.531006 1.856 0.829206 1.856 1.19521V6.58921H1.4492C0.9248 6.58921 0.5 7.01401 0.5 7.53841V12.4752C0.5 12.999 0.9254 13.4244 1.4492 13.4244H1.856V16.8036C1.856 17.1696 2.1536 17.4678 2.5202 17.4678H13.4798C13.8458 17.4678 14.144 17.1696 14.144 16.8036V13.4244H14.5508C15.0746 13.4244 15.5 12.9996 15.5 12.4752V7.53841C15.5 7.01461 15.0752 6.58981 14.5508 6.58981ZM2.5202 1.19521H10.214V4.59361C10.214 4.77721 10.3628 4.92541 10.5464 4.92541H13.4804V6.58921H2.5202V1.19521ZM7.4894 10.296C6.683 10.008 6.1508 9.56161 6.1508 8.85661C6.1508 8.02921 6.8492 7.40341 7.9862 7.40341C8.5406 7.40341 8.936 7.51141 9.224 7.64761L8.9792 8.52541C8.66545 8.3726 8.32078 8.29397 7.9718 8.29561C7.4966 8.29561 7.2662 8.51821 7.2662 8.76301C7.2662 9.07261 7.532 9.20881 8.1656 9.44641C9.0224 9.76321 9.4178 10.209 9.4178 10.893C9.4178 11.7066 8.7992 12.3972 7.4678 12.3972C6.9134 12.3972 6.3668 12.246 6.0932 12.0948L6.3164 11.1954C6.69317 11.3878 7.10901 11.4912 7.532 11.4978C8.036 11.4978 8.3024 11.2884 8.3024 10.9722C8.3024 10.6698 8.0726 10.4976 7.4894 10.296ZM1.7738 9.96481C1.7738 8.31661 2.954 7.40281 4.4216 7.40281C4.9904 7.40281 5.4218 7.51741 5.6162 7.61161L5.3858 8.48221C5.09435 8.35982 4.78088 8.29856 4.4648 8.30221C3.6014 8.30221 2.9252 8.82721 2.9252 9.90661C2.9252 10.8708 3.5006 11.4828 4.472 11.4828C4.8104 11.4828 5.1704 11.4186 5.393 11.3244L5.552 12.1878C5.3576 12.2808 4.8968 12.3966 4.3142 12.3966C2.6372 12.3972 1.7738 11.3466 1.7738 9.96481ZM13.4798 16.6248H2.5202V13.425H13.4798V16.6248ZM12.593 12.3252H11.312L9.758 7.47481H10.9598L11.5496 9.52621C11.7146 10.1088 11.8658 10.656 11.981 11.2602H12.0026C12.1253 10.6836 12.2716 10.1124 12.4412 9.54781L13.0604 7.47541H14.2256L12.593 12.3252Z" fill="white"/>
</svg>
