<svg xml:space="preserve" viewBox="0 0 100 100" y="0" x="0" xmlns="http://www.w3.org/2000/svg" width="200px"
    height="200px">

    <g class="ldl-scale" style="transform-origin: 50% 50%; transform: rotate(0deg) scale(1, 1);"
        transform="matrix(0.988304, 0, 0, 0.81334, 247.120178, 205.848267)">
        <g class="ldl-ani">
            <g class="ldl-layer">
                <g class="ldl-ani"
                    style="transform-origin: 50px 50px; opacity: 1; animation: 2.63158s linear -1.46199s infinite normal forwards running keyframe-blink;">
                    <circle fill="#333" r="5.1" cy="15.1" cx="50.5" style="fill: rgb(0, 187, 197);"></circle>
                </g>
            </g>
            <g class="ldl-layer">
                <g class="ldl-ani"
                    style="transform-origin: 50px 50px; opacity: 1; animation: 2.63158s linear -1.60819s infinite normal forwards running keyframe-blink;">
                    <circle r="5.1" fill="#333" cy="25.7" cx="75.1" transform="rotate(-45.001 75.062 25.655)"
                        style="fill: rgb(0, 187, 197);"></circle>
                </g>
            </g>
            <g class="ldl-layer">
                <g class="ldl-ani"
                    style="transform-origin: 50px 50px; opacity: 1; animation: 2.63158s linear -1.75439s infinite normal forwards running keyframe-blink;">
                    <circle fill="#333" r="5.1" cy="50.5" cx="84.9" style="fill: rgb(0, 187, 197);"></circle>
                </g>
            </g>
            <g class="ldl-layer">
                <g class="ldl-ani"
                    style="transform-origin: 50px 50px; opacity: 1; animation: 2.63158s linear -1.90058s infinite normal forwards running keyframe-blink;">
                    <circle r="5.1" fill="#333" cy="75.1" cx="74.3" transform="rotate(-45.001 74.345 75.063)"
                        style="fill: rgb(0, 187, 197);"></circle>
                </g>
            </g>
            <g class="ldl-layer">
                <g class="ldl-ani"
                    style="transform-origin: 50px 50px; opacity: 1; animation: 2.63158s linear -2.04678s infinite normal forwards running keyframe-blink;">
                    <circle fill="#333" r="5.1" cy="84.9" cx="49.5" style="fill: rgb(0, 187, 197);"></circle>
                </g>
            </g>
            <g class="ldl-layer">
                <g class="ldl-ani"
                    style="transform-origin: 50px 50px; opacity: 1; animation: 2.63158s linear -2.19298s infinite normal forwards running keyframe-blink;">
                    <circle r="5.1" fill="#333" cy="74.3" cx="24.9" transform="rotate(-45.001 24.937 74.347)"
                        style="fill: rgb(0, 187, 197);"></circle>
                </g>
            </g>
            <g class="ldl-layer">
                <g class="ldl-ani"
                    style="transform-origin: 50px 50px; opacity: 1; animation: 2.63158s linear -2.33918s infinite normal forwards running keyframe-blink;">
                    <circle fill="#333" r="5.1" cy="49.5" cx="15.1" style="fill: rgb(0, 187, 197);"></circle>
                </g>
            </g>
            <g class="ldl-layer">
                <g class="ldl-ani"
                    style="transform-origin: 50px 50px; opacity: 1; animation: 2.63158s linear -2.48538s infinite normal forwards running keyframe-blink;">
                    <circle r="5.1" fill="#333" cy="24.9" cx="25.7" transform="rotate(-45.001 25.654 24.938)"
                        style="fill: rgb(0, 187, 197);"></circle>
                </g>
            </g>
            <mask id="mask0_157_546" style="mask-type:alpha" maskUnits="userSpaceOnUse" x="0" y="0" width="26"
                height="28">
                <path fill-rule="evenodd" clip-rule="evenodd"
                    d="M7.56908 5.51156C7.55587 5.36568 7.54909 5.21795 7.54909 5.0688C7.54909 2.26935 9.93648 0 12.8817 0C15.8268 0 18.2143 2.26935 18.2143 5.0688C18.2143 5.21795 18.2075 5.36568 18.1942 5.51156H19.3711H19.5905C21.1254 5.51156 22.4294 6.57875 22.6576 8.02145L25.2814 24.6138C25.5633 26.3965 24.1108 28 22.2143 28H19.3711H16.192H9.57142H8.60144H3.54912C1.65257 28 0.200123 26.3965 0.48202 24.6138L3.10582 8.02145C3.33396 6.57875 4.63799 5.51156 6.17292 5.51156H7.56908ZM16.5156 5.51156H16.192H9.57142H9.24771C9.2283 5.36656 9.2183 5.21872 9.2183 5.0688C9.2183 3.14569 10.8585 1.58671 12.8817 1.58671C14.9048 1.58671 16.545 3.14569 16.545 5.0688C16.545 5.21872 16.535 5.36656 16.5156 5.51156Z"
                    fill="#FAFBFD"></path>
            </mask>
            <g mask="url(#mask0_157_546)" transform="matrix(1.27495, 0, 0, 1.27495, 34.343082, 29.058573)" style="">
                <path d="M38.6444 21.3537L9.5312 -6.49329L3.2186 -0.530742L32.3318 27.3163L38.6444 21.3537Z"
                    fill="#CEE7FB"></path>
                <path d="M30.5039 29.0911L1.39076 1.24408L-4.92184 7.20662L24.1913 35.0537L30.5039 29.0911Z"
                    fill="#6D8AEC"></path>
                <path d="M22.4105 36.8285L-6.70267 8.98151L-13.0153 14.9441L16.0979 42.7911L22.4105 36.8285Z"
                    fill="#143399"></path>
            </g>
        </g>
    </g>

</svg>